<svg width="74" height="74" viewBox="0 0 74 74" fill="none" xmlns="http://www.w3.org/2000/svg">
<g clip-path="url(#clip0_35_588)">
<g filter="url(#filter0_d_35_588)">
<g filter="url(#filter1_d_35_588)">
<path d="M33.4762 65.1905C17.907 65.1905 5.28568 52.5692 5.28568 37C5.28568 21.4309 17.907 8.80957 33.4762 8.80957C49.0453 8.80957 61.6666 21.4309 61.6666 37C61.6666 52.5692 49.0453 65.1905 33.4762 65.1905Z" fill="white"/>
</g>
<path fill-rule="evenodd" clip-rule="evenodd" d="M35.875 44L43 37L35.875 30M24 37H43H24Z" fill="white"/>
<path d="M35.875 30L43 37L35.875 44M43 37H24" stroke="#4BA6E8" stroke-linecap="round" stroke-linejoin="round"/>
</g>
</g>
<defs>
<filter id="filter0_d_35_588" x="-0.714355" y="2.80957" width="72.381" height="72.3809" filterUnits="userSpaceOnUse" color-interpolation-filters="sRGB">
<feFlood flood-opacity="0" result="BackgroundImageFix"/>
<feColorMatrix in="SourceAlpha" type="matrix" values="0 0 0 0 0 0 0 0 0 0 0 0 0 0 0 0 0 0 127 0" result="hardAlpha"/>
<feOffset dx="2" dy="2"/>
<feGaussianBlur stdDeviation="4"/>
<feComposite in2="hardAlpha" operator="out"/>
<feColorMatrix type="matrix" values="0 0 0 0 0 0 0 0 0 0 0 0 0 0 0 0 0 0 0.15 0"/>
<feBlend mode="normal" in2="BackgroundImageFix" result="effect1_dropShadow_35_588"/>
<feBlend mode="normal" in="SourceGraphic" in2="effect1_dropShadow_35_588" result="shape"/>
</filter>
<filter id="filter1_d_35_588" x="-0.714355" y="2.80957" width="72.381" height="72.3809" filterUnits="userSpaceOnUse" color-interpolation-filters="sRGB">
<feFlood flood-opacity="0" result="BackgroundImageFix"/>
<feColorMatrix in="SourceAlpha" type="matrix" values="0 0 0 0 0 0 0 0 0 0 0 0 0 0 0 0 0 0 127 0" result="hardAlpha"/>
<feOffset dx="2" dy="2"/>
<feGaussianBlur stdDeviation="4"/>
<feComposite in2="hardAlpha" operator="out"/>
<feColorMatrix type="matrix" values="0 0 0 0 0 0 0 0 0 0 0 0 0 0 0 0 0 0 0.15 0"/>
<feBlend mode="normal" in2="BackgroundImageFix" result="effect1_dropShadow_35_588"/>
<feBlend mode="normal" in="SourceGraphic" in2="effect1_dropShadow_35_588" result="shape"/>
</filter>
<clipPath id="clip0_35_588">
<rect width="74" height="74" fill="white" transform="matrix(-1 0 0 1 74 0)"/>
</clipPath>
</defs>
</svg>
