<svg width="20" height="20" viewBox="0 0 20 20" fill="none" xmlns="http://www.w3.org/2000/svg">
<path d="M14.5827 15.8335V18.3335M5.41602 15.8335V18.3335" stroke="#4BA6E8" stroke-linecap="round" stroke-linejoin="round"/>
<path d="M3.33203 8.33342C3.33203 5.19091 3.33203 3.61925 4.3087 2.64341C5.28536 1.66758 6.8562 1.66675 9.9987 1.66675C13.1412 1.66675 14.7129 1.66675 15.6887 2.64341C16.6645 3.62008 16.6654 5.19091 16.6654 8.33342V10.8334C16.6654 13.1901 16.6654 14.3692 15.9329 15.1009C15.2012 15.8334 14.022 15.8334 11.6654 15.8334H8.33203C5.97536 15.8334 4.7962 15.8334 4.06453 15.1009C3.33203 14.3692 3.33203 13.1901 3.33203 10.8334V8.33342Z" stroke="#4BA6E8" stroke-linejoin="round"/>
<path d="M3.33268 10.0001C4.88018 10.4792 7.34102 10.8334 9.99935 10.8334C12.6577 10.8334 15.1185 10.4792 16.666 10.0001M18.3327 9.16675H17.8927C17.6341 9.16677 17.379 9.22696 17.1477 9.34258L16.666 9.58341M3.33268 9.58341L2.85102 9.34258C2.61969 9.22696 2.36463 9.16677 2.10602 9.16675H1.66602M3.74935 13.3334H4.99935M14.9993 13.3334H16.2493" stroke="#4BA6E8" stroke-linecap="round" stroke-linejoin="round"/>
<path opacity="0.1" d="M8.33203 13.3335H11.6654" stroke="#4BA6E8" stroke-linecap="round"/>
</svg>
