<svg width="20" height="20" viewBox="0 0 20 20" fill="none" xmlns="http://www.w3.org/2000/svg">
<path d="M2.08268 10.0001L3.74935 10.8334M17.916 10.4167L16.2493 10.8334M6.66602 14.5834L6.87102 14.0717C7.17518 13.3109 7.32768 12.9301 7.64518 12.7151C7.96185 12.5001 8.37185 12.5001 9.19185 12.5001H10.8068C11.6268 12.5001 12.0368 12.5001 12.3535 12.7151C12.6702 12.9301 12.8235 13.3109 13.1285 14.0717L13.3327 14.5834M1.66602 14.1667V16.5684C1.66602 16.8842 1.86602 17.1726 2.18435 17.3134C2.39018 17.4051 2.58685 17.5001 2.82518 17.5001H4.25685C4.49518 17.5001 4.69185 17.4051 4.89852 17.3134C5.21518 17.1726 5.41602 16.8842 5.41602 16.5684V15.0001M14.5827 15.0001V16.5684C14.5827 16.8842 14.7827 17.1726 15.101 17.3134C15.3068 17.4051 15.5035 17.5001 15.7418 17.5001H17.1735C17.4118 17.5001 17.6085 17.4051 17.8152 17.3134C18.1318 17.1726 18.3327 16.8842 18.3327 16.5684V14.1667M16.666 7.08341L17.4993 6.66675M3.33268 7.08341L2.49935 6.66675" stroke="#4BA6E8" stroke-linecap="round" stroke-linejoin="round"/>
<path d="M3.74935 7.5L4.65602 4.77917C5.02268 3.67917 5.20602 3.12917 5.64268 2.815C6.07935 2.50083 6.65935 2.5 7.81852 2.5H12.1802C13.3393 2.5 13.9193 2.5 14.3552 2.815C14.7927 3.12917 14.976 3.67917 15.3427 4.77917L16.2493 7.5M3.74935 7.5H16.2493M3.74935 7.5C2.95185 8.345 1.66602 9.52083 1.66602 10.8333V13.725C1.66602 14.2017 1.98268 14.6017 2.40185 14.6558L4.99935 15H14.9993L17.5968 14.6558C18.016 14.6 18.3327 14.2 18.3327 13.725V10.8333C18.3327 9.52083 17.0468 8.345 16.2493 7.5" stroke="#4BA6E8" stroke-linejoin="round"/>
</svg>
