<svg width="15" height="17" viewBox="0 0 15 17" fill="none" xmlns="http://www.w3.org/2000/svg">
<path d="M8.65853 14.0212C9.47087 14.1836 9.99769 14.9739 9.83523 15.7862C9.67276 16.5985 8.88252 17.1254 8.07018 16.9629L1.20612 15.5901C0.393775 15.4276 -0.13305 14.6374 0.0294182 13.825C0.191886 13.0127 0.982124 12.4859 1.79446 12.6483L8.65853 14.0212Z" fill="#B0D5F0"/>
<path d="M13.5709 5.10683C14.1832 5.66489 14.2271 6.61362 13.6691 7.22588C13.111 7.83814 12.1623 7.88209 11.55 7.32403L6.37656 2.60861C5.7643 2.05056 5.72035 1.10183 6.27841 0.489562C6.83646 -0.122701 7.78519 -0.166646 8.39746 0.391409L13.5709 5.10683Z" fill="#B0D5F0"/>
</svg>
