<svg width="20" height="20" viewBox="0 0 20 20" fill="none" xmlns="http://www.w3.org/2000/svg">
<path d="M12.9173 9.16667C12.9173 9.54969 12.8419 9.92896 12.6953 10.2828C12.5487 10.6367 12.3339 10.9582 12.063 11.2291C11.7922 11.4999 11.4707 11.7147 11.1168 11.8613C10.7629 12.0079 10.3837 12.0833 10.0007 12.0833C9.61763 12.0833 9.23836 12.0079 8.88449 11.8613C8.53063 11.7147 8.20909 11.4999 7.93826 11.2291C7.66742 10.9582 7.45258 10.6367 7.306 10.2828C7.15943 9.92896 7.08398 9.54969 7.08398 9.16667C7.08398 8.39312 7.39128 7.65125 7.93826 7.10427C8.48524 6.55729 9.2271 6.25 10.0007 6.25C10.7742 6.25 11.5161 6.55729 12.063 7.10427C12.61 7.65125 12.9173 8.39312 12.9173 9.16667Z" stroke="#4BA6E8"/>
<path d="M10 1.66675C14.0583 1.66675 17.5 5.02758 17.5 9.10508C17.5 13.2467 14.0025 16.1542 10.7725 18.1301C10.5367 18.2628 10.2706 18.3325 10 18.3325C9.72938 18.3325 9.46333 18.2628 9.2275 18.1301C6.0025 16.1359 2.5 13.2626 2.5 9.10591C2.5 5.02758 5.94167 1.66675 10 1.66675Z" stroke="#4BA6E8"/>
</svg>
