<?xml version="1.0" encoding="UTF-8"?>
<svg id="_レイヤー_2" data-name="レイヤー 2" xmlns="http://www.w3.org/2000/svg" viewBox="0 0 600 600">
  <defs>
    <style>
      .cls-1 {
        fill: #f691a9;
      }

      .cls-2 {
        fill: none;
      }
    </style>
  </defs>
  <g id="_レイヤー_1-2" data-name="レイヤー 1">
    <path class="cls-1" d="M299.81,231.71s72.78-54.08,68.69-128.99c-2.53-46.36-20.42-75.52-49.14-94.67,0,0-19.54,27.19-19.54,27.19h.38s-19.54-27.19-19.54-27.19c-28.72,19.15-46.61,48.31-49.14,94.67-4.1,74.91,68.69,128.99,68.69,128.99h-.38Z"/>
    <path class="cls-1" d="M234.99,279.08s-28.94-85.93-101.45-105.18c-44.87-11.91-78.13-3.92-105.22,17.48,0,0,19.82,26.99,19.82,26.99l.12-.36s-31.9,10.19-31.9,10.19c9.34,33.23,31.55,59.25,74.85,75.99,69.98,27.04,143.9-25.46,143.9-25.46l-.12.36Z"/>
    <path class="cls-1" d="M260.01,355.36s-90.67.97-131.39,63.98c-25.2,38.99-27.87,73.1-15.89,105.47,0,0,31.79-10.51,31.79-10.51l-.31-.23s-.17,33.49-.17,33.49c34.49,1.39,66.1-11.69,95.4-47.71,47.34-58.19,20.25-144.73,20.25-144.73l.31.23Z"/>
    <path class="cls-1" d="M340.3,355.14s-27.09,86.53,20.25,144.73c29.3,36.01,60.91,49.1,95.4,47.71,0,0-.17-33.49-.17-33.49l-.31.23s31.79,10.51,31.79,10.51c11.98-32.38,9.31-66.48-15.89-105.47-40.72-63.01-131.39-63.98-131.39-63.98l.31-.23Z"/>
    <path class="cls-1" d="M364.89,278.71s73.92,52.51,143.9,25.46c43.3-16.74,65.52-42.75,74.85-75.99,0,0-31.9-10.19-31.9-10.19l.12.36s19.82-26.99,19.82-26.99c-27.09-21.4-60.35-29.39-105.22-17.48-72.51,19.25-101.45,105.18-101.45,105.18l-.12-.36Z"/>
    <circle class="cls-1" cx="300" cy="300" r="27.6"/>
    <rect class="cls-2" width="600" height="600"/>
  </g>
</svg>