<svg width="40" height="40" viewBox="0 0 40 40" fill="none" xmlns="http://www.w3.org/2000/svg">
<path d="M28.3176 9.46027C28.9313 8.84658 29.926 8.84658 30.5397 9.46027C31.1534 10.074 31.1534 11.0687 30.5397 11.6824L22.2221 20L30.5397 28.3176C31.1534 28.9313 31.1534 29.926 30.5397 30.5397C29.926 31.1534 28.9313 31.1534 28.3176 30.5397L20 22.2221L11.6824 30.5397C11.0687 31.1534 10.074 31.1534 9.46027 30.5397C8.84658 29.926 8.84658 28.9313 9.46027 28.3176L17.7779 20L9.46027 11.6824C8.84658 11.0687 8.84658 10.074 9.46027 9.46027C10.074 8.84658 11.0687 8.84658 11.6824 9.46027L20 17.7779L28.3176 9.46027Z" fill="#F691A9"/>
</svg>
