<svg width="60" height="60" viewBox="0 0 56 56" fill="none" xmlns="http://www.w3.org/2000/svg">
<path d="M15.1666 8.16663H10.5C9.88112 8.16663 9.28763 8.41246 8.85004 8.85004C8.41246 9.28763 8.16663 9.88112 8.16663 10.5V18.6666C8.16663 22.0702 9.51871 25.3344 11.9254 27.7412C14.3321 30.1479 17.5963 31.5 21 31.5C24.4036 31.5 27.6678 30.1479 30.0745 27.7412C32.4812 25.3344 33.8333 22.0702 33.8333 18.6666V10.5C33.8333 9.88112 33.5875 9.28763 33.1499 8.85004C32.7123 8.41246 32.1188 8.16663 31.5 8.16663H26.8333" stroke="#4BA6E8" stroke-width="3" stroke-linecap="round" stroke-linejoin="round"/>
<path d="M43.1666 36.1666V39.0833C43.1666 40.5388 42.8799 41.98 42.323 43.3247C41.766 44.6694 40.9496 45.8912 39.9204 46.9204C38.8912 47.9496 37.6694 48.766 36.3247 49.323C34.98 49.88 33.5388 50.1666 32.0833 50.1666C30.6278 50.1666 29.1866 49.88 27.8419 49.323C26.4972 48.766 25.2754 47.9496 24.2462 46.9204C23.217 45.8912 22.4006 44.6694 21.8436 43.3247C21.2866 41.98 21 40.5388 21 39.0833V31.5M26.8333 5.83331V10.5M15.1666 5.83331V10.5" stroke="#4BA6E8" stroke-width="3" stroke-linecap="round" stroke-linejoin="round"/>
<path d="M47.8333 31.5C47.8333 32.7377 47.3417 33.9246 46.4665 34.7998C45.5913 35.675 44.4043 36.1666 43.1667 36.1666C41.929 36.1666 40.742 35.675 39.8668 34.7998C38.9917 33.9246 38.5 32.7377 38.5 31.5C38.5 30.2623 38.9917 29.0753 39.8668 28.2001C40.742 27.325 41.929 26.8333 43.1667 26.8333C44.4043 26.8333 45.5913 27.325 46.4665 28.2001C47.3417 29.0753 47.8333 30.2623 47.8333 31.5Z" stroke="#EEA2B3" stroke-width="3"/>
</svg>
