<svg width="60" height="60" viewBox="0 0 56 56" fill="none" xmlns="http://www.w3.org/2000/svg">
<path d="M31.7754 49.8563C30.7493 50.8088 29.4001 51.3366 28 51.3333C26.6008 51.336 25.2526 50.8082 24.227 49.8563C14.9614 41.1273 2.54337 31.3763 8.59837 17.22C11.8767 9.56663 19.7354 4.66663 28.0024 4.66663C36.2694 4.66663 44.1304 9.56663 47.404 17.22C53.452 31.36 41.0644 41.1576 31.7754 49.8563Z" stroke="#4BA6E8" stroke-width="3"/>
<path d="M36.1667 25.6667C36.1667 26.7391 35.9555 27.8011 35.5451 28.7919C35.1346 29.7827 34.5331 30.683 33.7747 31.4414C33.0164 32.1997 32.1161 32.8013 31.1253 33.2117C30.1345 33.6221 29.0725 33.8333 28 33.8333C26.9276 33.8333 25.8656 33.6221 24.8748 33.2117C23.884 32.8013 22.9837 32.1997 22.2253 31.4414C21.467 30.683 20.8654 29.7827 20.455 28.7919C20.0446 27.8011 19.8334 26.7391 19.8334 25.6667C19.8334 23.5007 20.6938 21.4235 22.2253 19.892C23.7569 18.3604 25.8341 17.5 28 17.5C30.166 17.5 32.2432 18.3604 33.7747 19.892C35.3063 21.4235 36.1667 23.5007 36.1667 25.6667Z" stroke="#EEA2B3" stroke-width="3"/>
</svg>
