<svg width="60" height="60" viewBox="0 0 56 56" fill="none" xmlns="http://www.w3.org/2000/svg">
<path d="M32.6666 8.16663C41.4656 8.16663 45.8663 8.16663 48.5986 11.0716C51.331 13.9766 51.3333 18.6503 51.3333 28C51.3333 37.3496 51.3333 42.0233 48.5986 44.9283C45.864 47.8333 41.4656 47.8333 32.6666 47.8333H23.3333C14.5343 47.8333 10.1336 47.8333 7.40129 44.9283C4.66896 42.0233 4.66663 37.3496 4.66663 28C4.66663 18.6503 4.66663 13.9766 7.40129 11.0716C10.136 8.16663 14.5343 8.16663 23.3333 8.16663H32.6666Z" stroke="#4BA6E8" stroke-width="3" stroke-linejoin="round"/>
<path d="M11.6666 36.1666C15.421 31.1803 24.1593 30.9073 28 36.1666M35 22.1666H44.3333M35 31.4999H39.6666M23.9143 23.9166C23.9143 24.9996 23.4841 26.0382 22.7183 26.8039C21.9525 27.5697 20.9139 27.9999 19.831 27.9999C18.748 27.9999 17.7094 27.5697 16.9436 26.8039C16.1778 26.0382 15.7476 24.9996 15.7476 23.9166C15.7476 22.8336 16.1778 21.795 16.9436 21.0292C17.7094 20.2635 18.748 19.8333 19.831 19.8333C20.9139 19.8333 21.9525 20.2635 22.7183 21.0292C23.4841 21.795 23.9143 22.8336 23.9143 23.9166Z" stroke="#EEA2B3" stroke-width="3" stroke-linecap="round"/>
</svg>
