<svg width="60" height="60" viewBox="0 0 56 56" fill="none" xmlns="http://www.w3.org/2000/svg">
<path d="M14 21V49M14 21C14 14.4013 14 11.0997 16.051 9.051C18.0996 7 21.4013 7 28 7C34.5986 7 37.9003 7 39.949 9.051C42 11.0997 42 14.4013 42 21M14 21C9.59929 21 7.40129 21 6.03396 22.3673C4.66663 23.7347 4.66663 25.9327 4.66663 30.3333V39.6667C4.66663 44.0673 4.66663 46.2653 6.03396 47.6327C7.40129 49 9.59929 49 14 49M14 49H42M42 49V21M42 49C46.4006 49 48.5986 49 49.966 47.6327C51.3333 46.2653 51.3333 44.0673 51.3333 39.6667V30.3333C51.3333 25.9327 51.3333 23.7347 49.966 22.3673C48.5986 21 46.4006 21 42 21" stroke="#4BA6E8" stroke-width="3" stroke-linecap="round" stroke-linejoin="round"/>
<path d="M27.9999 16.3333V25.6666M32.6806 20.9883H23.3473M23.3333 42V49H32.6666V42C32.6666 40.7623 32.1749 39.5753 31.2997 38.7001C30.4246 37.825 29.2376 37.3333 27.9999 37.3333C26.7622 37.3333 25.5753 37.825 24.7001 38.7001C23.8249 39.5753 23.3333 40.7623 23.3333 42Z" stroke="#EEA2B3" stroke-width="3" stroke-linecap="round" stroke-linejoin="round"/>
</svg>
