<svg width="20" height="20" viewBox="0 0 20 20" fill="none" xmlns="http://www.w3.org/2000/svg">
<path d="M7.63213 4.76L7.2963 4.005C7.07713 3.51167 6.96713 3.265 6.80296 3.07583C6.59758 2.83893 6.32954 2.66476 6.02963 2.57333C5.79046 2.5 5.52046 2.5 4.97963 2.5C4.18963 2.5 3.79463 2.5 3.46296 2.65167C3.05382 2.85045 2.73712 3.19939 2.5788 3.62583C2.45963 3.97 2.4938 4.32417 2.56213 5.03333C3.28991 12.575 7.42491 16.7097 14.9671 17.4375C15.6755 17.5058 16.0296 17.54 16.3746 17.4208C16.8006 17.2625 17.1492 16.9462 17.348 16.5375C17.4996 16.205 17.4996 15.81 17.4996 15.02C17.4996 14.4792 17.4996 14.2092 17.4263 13.97C17.3349 13.6701 17.1607 13.402 16.9238 13.1967C16.7355 13.0325 16.488 12.9233 15.9946 12.7033L15.2396 12.3683C14.7046 12.1308 14.438 12.0117 14.1663 11.9858C13.9062 11.9609 13.6438 11.9974 13.4005 12.0925C13.1463 12.1917 12.9221 12.3783 12.4721 12.7533C12.0246 13.1258 11.8013 13.3117 11.528 13.4117C11.2656 13.5024 10.9858 13.5312 10.7105 13.4958C10.4221 13.4542 10.2021 13.3358 9.76046 13.1C8.38963 12.3667 7.63296 11.6108 6.89963 10.2392C6.6638 9.7975 6.5463 9.5775 6.5038 9.28917C6.4683 9.01416 6.49682 8.73467 6.58713 8.4725C6.68713 8.19833 6.8738 7.975 7.2463 7.5275C7.6213 7.0775 7.8088 6.85333 7.90713 6.59917C8.00213 6.35583 8.0388 6.09333 8.0138 5.83333C7.9888 5.56167 7.86963 5.295 7.6313 4.76H7.63213Z" stroke="#4BA6E8" stroke-linecap="round"/>
</svg>
