<svg width="33" height="31" viewBox="0 0 33 31" fill="none" xmlns="http://www.w3.org/2000/svg">
<path fill-rule="evenodd" clip-rule="evenodd" d="M4.20168 1.32928C6.26104 -0.698247 9.65213 -0.337983 11.3764 1.94425L13.512 4.76603C14.9164 6.62264 14.7912 9.21654 13.1245 10.857L12.7217 11.2558C12.676 11.4232 12.6714 11.599 12.7082 11.7685C12.8148 12.4522 13.3918 13.9 15.8082 16.2794C18.2246 18.6588 19.6968 19.2285 20.3974 19.3358C20.5739 19.3709 20.7562 19.3658 20.9304 19.3207L21.6208 18.6404C23.1031 17.1826 25.3774 16.9094 27.2117 17.8964L30.4437 19.6391C33.2138 21.127 33.9127 24.8537 31.6452 27.0873L29.2406 29.4533C28.4825 30.199 27.4638 30.8206 26.2218 30.9362C23.159 31.2194 16.0231 30.8575 8.52177 23.4729C1.5213 16.5793 0.177723 10.5671 0.00681435 7.60457C-0.0777937 6.10655 0.636299 4.83976 1.54668 3.94496L4.20168 1.32928ZM9.34585 3.45065C8.48793 2.31624 6.89053 2.22575 5.9903 3.11217L3.3336 5.72617C2.77519 6.27579 2.50783 6.88237 2.54167 7.46214C2.67705 9.81642 3.76003 15.2405 10.3121 21.6917C17.1856 28.458 23.5329 28.6607 25.9866 28.4328C26.4875 28.3876 26.9849 28.1295 27.4503 27.6721L29.8532 25.3044C30.8312 24.3426 30.6163 22.5899 29.2321 21.8459L26.0001 20.1049C25.1066 19.6256 24.0609 19.7832 23.4111 20.4233L22.6412 21.1823L21.7443 20.2909C22.6412 21.1823 22.6395 21.184 22.6378 21.184L22.6361 21.1873L22.631 21.1924L22.6192 21.2024L22.5938 21.2259C22.5224 21.2915 22.4454 21.351 22.3637 21.4035C22.2283 21.4923 22.0489 21.5912 21.8239 21.6733C21.367 21.8425 20.7612 21.933 20.0132 21.8191C18.5461 21.5962 16.6018 20.6059 14.0179 18.0623C11.4357 15.5186 10.4271 13.6051 10.2004 12.1539C10.0836 11.4133 10.1767 10.8134 10.3493 10.361C10.4443 10.1064 10.5803 9.86876 10.752 9.65724L10.8062 9.59859L10.8299 9.57345L10.84 9.5634L10.8451 9.55837L10.8485 9.55502L11.3358 9.07579C12.0601 8.36029 12.1616 7.17561 11.4797 6.27243L9.34585 3.45065Z" fill="#4BA6E8"/>
</svg>
