<svg width="20" height="20" viewBox="0 0 20 20" fill="none" xmlns="http://www.w3.org/2000/svg">
<path d="M8.75024 16.6671V11.2496H3.33398C2.64363 11.2496 2.08398 10.69 2.08398 9.99963C2.0842 9.30946 2.64376 8.74963 3.33398 8.74963H8.75024V3.33337C8.75024 2.64315 9.31008 2.08359 10.0002 2.08337C10.6906 2.08337 11.2502 2.64302 11.2502 3.33337V8.74963H16.6677C17.3578 8.74985 17.9175 9.3096 17.9177 9.99963C17.9177 10.6899 17.3579 11.2494 16.6677 11.2496H11.2502V16.6671C11.25 17.3573 10.6905 17.9171 10.0002 17.9171C9.31021 17.9169 8.75046 17.3571 8.75024 16.6671Z" fill="#4BA6E8"/>
</svg>
