<svg width="20" height="20" viewBox="0 0 20 20" fill="none" xmlns="http://www.w3.org/2000/svg">
<path d="M3.33398 9.16675V8.33342C3.33398 5.19091 3.33398 3.61925 4.31065 2.64341C5.28732 1.66758 6.85815 1.66675 10.0007 1.66675C13.1432 1.66675 14.7148 1.66675 15.6907 2.64341C16.6665 3.62008 16.6673 5.19091 16.6673 8.33342V9.16675C16.6673 12.3092 16.6673 13.8809 15.6907 14.8567C14.714 15.8326 13.1432 15.8334 10.0007 15.8334C6.85815 15.8334 5.28648 15.8334 4.31065 14.8567C3.33482 13.8801 3.33398 12.3092 3.33398 9.16675Z" stroke="#4BA6E8" stroke-linejoin="round"/>
<path d="M3.33398 10C3.33398 10 6.44482 10.8333 10.0007 10.8333C13.5565 10.8333 16.6673 10 16.6673 10" stroke="#4BA6E8" stroke-linejoin="round"/>
<path d="M5.83464 15.8335L4.16797 18.3335M14.168 15.8335L15.8346 18.3335" stroke="#4BA6E8" stroke-linecap="round" stroke-linejoin="round"/>
<path d="M3.75 13.3334H5.41667M14.5833 13.3334H16.25M4.16667 4.16675H15.8333" stroke="#4BA6E8" stroke-linecap="round"/>
</svg>
